# xmcd CD database file
#
# Track frame offsets:
#	150
#	8079
#	33253
#	56208
#	70558
#	95922
#	106590
#	132046
#	151238
#	178861
#	205098
#
# Disc length: 2833 seconds
#
# Revision: 0
# Processed by: cddbd v1.5.2PL0 Copyright (c) Steve Scherf et al.
# Submitted via: CDex 1.51
#
DISCID=880b0f0b
DTITLE=James McMillan - Ballads
DYEAR=2000
DGENRE=Jazz
TTITLE0=In the wee small hours (trio)
TTITLE1=You've changed
TTITLE2=Blues for CJ
TTITLE3=I can't let go now
TTITLE4=Pete's tune
TTITLE5=But beautiful
TTITLE6=The first time
TTITLE7=Advance warning
TTITLE8=Sophisticated lady
TTITLE9=Too much, too young
TTITLE10=In the wee small hours
EXTD=YEAR: 2000
EXTT0=
EXTT1=
EXTT2=
EXTT3=
EXTT4=
EXTT5=
EXTT6=
EXTT7=
EXTT8=
EXTT9=
EXTT10=
PLAYORDER=
